PathFileType	4	(X/Y/Z)	C:/Users/beibeiliu/ov580/test_trc/capture2\sequence.5_training_dense_left.trc
DataRate	CameraRate	NumFrames	NumMarkers	Units	OrigDataRate	OrigDataStartFrame	OrigNumFrames
120	120	10	19	mm	120	44	350
Frame#	Time	ThumbCMC			ThumbMCP			ThumbIP			ThumbTip			IndexMCP			IndexPIP			IndexTip			MiddleMCP			MiddlePIP			MiddleTip			RingMCP			RingPIP			RingTip			PinkyMCP			PinkyPIP			PinkyTip			BackHand1			BackHand2			BackHand3	
		X0	Y0	Z0	X1	Y1	Z1	X2	Y2	Z2	X3	Y3	Z3	X4	Y4	Z4	X5	Y5	Z5	X6	Y6	Z6	X7	Y7	Z7	X8	Y8	Z8	X9	Y9	Z9	X10	Y10	Z10	X11	Y11	Z11	X12	Y12	Z12	X13	Y13	Z13	X14	Y14	Z14	X15	Y15	Z15	X16	Y16	Z16	X17	Y17	Z17	X18	Y18	Z18	
43	0.358333	-116.015	43.7264	-25.155	-108.661	23.5912	-49.422	-105.153	14.9198	-74.4713	-118.523	11.5338	-101.586	-115.042	62.4165	-97.3063	-102.473	53.6558	-115.376	-100.369	41.6598	-138.594	-136.217	43.3441	-98.9285	-125.345	11.8044	-91.6626	-131.596	19.8224	-58.041	-149.131	28.458	-92.7105	-142.661	6.96482	-74.9261	-147.113	27.0138	-44.8377	-163.256	24.8845	-84.7453	-155.085	8.95117	-62.3807	-154.943	29.1845	-38.7421	-168.104	68.7258	-55.3065	-177.202	66.1591	-22.2778	-140.557	73.8021	-30.3195	
44	0.366667	-120.687	44.6607	-23.3834	-106.085	22.7052	-48.7399	-102.859	15.8056	-79.5595	-117.877	14.4759	-99.2511	-112.775	62.55	-93.9659	-104.332	52.2356	-115.029	-100.568	36.0759	-139.408	-133.614	45.9479	-97.5936	-128.407	14.2962	-95.4789	-130.512	20.0462	-57.3767	-150.497	28.139	-93.0583	-143.079	7.31484	-75.3367	-147.446	27.6668	-45.1783	-167.035	28.6005	-84.405	-155.505	10.0796	-60.2647	-153.68	34.8575	-39.4278	-169.558	68.3229	-53.1154	-172.247	67.6987	-22.1393	-139.526	76.1141	-33.38	
45	0.375	-118.336	44.7589	-24.8736	-107.49	24.3058	-50.9571	-106.302	17.2127	-74.6048	-113.61	14.4039	-97.0411	-111.99	63.8872	-94.3577	-102.204	51.8509	-116.429	-99.2567	38.3734	-138.664	-132.838	44.6802	-99.7043	-130.258	13.5339	-92.0015	-131.593	19.6905	-58.0196	-147.907	33.6515	-92.5191	-142.173	9.57319	-76.101	-146.237	30.6619	-45.1802	-165.239	25.7341	-84.8008	-157.384	10.197	-61.6396	-155.113	31.4093	-38.934	-172.933	69.0232	-52.6275	-173.022	70.1906	-19.4763	-140.981	75.432	-30.7963	
46	0.383333	-116.016	47.0227	-27.1889	-105.261	24.7132	-49.8603	-104.875	18.948	-75.9313	-119.05	17.5056	-100.07	-113.405	67.8801	-93.6062	-106.93	59.4676	-116.088	-105.633	46.591	-141.569	-131.804	47.6356	-100.458	-126.855	15.0827	-92.9126	-131.902	21.1561	-59.2586	-154.141	33.8913	-93.2511	-141.244	10.6285	-75.7872	-147.506	27.5868	-45.7713	-165.508	26.6848	-85.2936	-155.562	11.6279	-65.8452	-156.087	32.0177	-41.0292	-168.676	71.6617	-53.6794	-174.306	69.2467	-19.7724	-139.703	76.2448	-31.3215	
47	0.391667	-115.697	46.7135	-25.8518	-110.166	27.4095	-51.1141	-102.586	19.7246	-80.0558	-114.345	17.183	-102.061	-114.763	72.1844	-96.333	-107.466	66.1356	-115.418	-104.429	59.2819	-142.692	-135.297	51.624	-98.8111	-130.189	18.1413	-96.2919	-130.196	23.4206	-59.2858	-151.499	32.9721	-93.6753	-141.493	12.9513	-76.1907	-146.299	30.0381	-45.16	-166.19	32.0878	-84.3791	-156.036	13.7148	-63.1035	-155.847	36.2579	-39.9583	-170.815	70.4031	-50.4086	-172.24	71.9393	-22.0018	-140.452	78.7116	-30.8786	
48	0.4	-117.758	47.716	-23.244	-109.978	28.2355	-50.2453	-102.183	21.316	-79.681	-119.537	21.4307	-101.442	-116.965	76.6619	-93.4528	-112.168	72.7542	-117.401	-110.004	69.5548	-142.379	-137.049	53.0921	-99.0169	-125.877	21.6569	-95.813	-127.786	27.7023	-59.3011	-150.036	39.713	-91.5201	-144.058	12.8387	-74.2411	-142.55	34.8258	-46.6426	-166.158	29.3489	-85.0927	-153.52	15.8016	-61.7035	-154.726	34.1939	-39.8157	-173.029	72.2511	-50.2672	-174.381	70.1939	-22.8006	-145.45	78.1997	-29.605	
49	0.408333	-113.731	49.3645	-27.213	-108.91	31.2908	-51.1113	-103.94	25.2007	-78.9044	-117.278	24.1934	-103.705	-118.315	80.7643	-94.9746	-111.7	78.6683	-119.095	-110.499	77.8377	-141.69	-134.667	55.7091	-100.658	-127.501	25.1034	-97.3129	-132.394	30.227	-58.9378	-150.678	39.7811	-94.0168	-139.905	16.5979	-74.9482	-144.853	32.9613	-46.0572	-165.735	38.5004	-84.3778	-151.7	18.388	-66.0566	-155.414	36.7019	-36.8722	-171.159	75.1465	-52.5904	-171.646	70.1938	-20.345	-142.863	79.7747	-30.3862	
50	0.416667	-115.413	50.0804	-22.6295	-106.401	32.9479	-52.4951	-103.598	26.9556	-78.2837	-113.815	25.3238	-104.39	-117.465	83.213	-89.0254	-116.604	83.4889	-118.083	-112.547	84.3906	-139.403	-134.782	57.9632	-99.3325	-126.269	27.2758	-97.3696	-130.734	29.8975	-61.8002	-149.426	44.4393	-93.3005	-140.439	17.5969	-75.0096	-143.526	37.1122	-46.2493	-163.416	34.948	-84.954	-153.426	17.038	-65.3848	-151.588	36.2509	-39.5281	-171.295	75.3359	-49.9388	-175.338	72.0375	-21.0869	-143.699	81.6574	-30.1443	
51	0.425	-114.63	50.9638	-22.2383	-102.797	32.5158	-50.6329	-103.523	28.5165	-78.1008	-116.414	28.0433	-105.618	-119.567	86.4007	-90.5625	-114.982	86.8308	-115.871	-115.042	88.3573	-142.033	-133.318	60.6392	-98.3024	-122.093	32.0444	-99.4272	-129.937	35.4746	-58.1384	-145.823	46.1906	-92.9659	-135.508	21.4212	-76.4339	-143.123	34.644	-47.6453	-165.903	37.1002	-85.5342	-149.63	20.5432	-63.3924	-150.515	41.1525	-41.94	-169.106	76.0091	-50.7435	-176.322	70.1761	-19.9699	-141.386	83.8276	-29.4327	
52	0.433333	-117.694	53.9207	-25.2031	-106.041	35.4766	-48.9101	-100.732	31.3939	-83.6897	-116.606	30.0396	-103.994	-121.862	87.2048	-89.1411	-116.694	88.2064	-114.125	-115.859	89.3518	-140.781	-133.405	59.3593	-101.491	-121.333	32.5846	-98.366	-124.035	36.4565	-60.1676	-150.4	46.1039	-92.2943	-135.316	22.6131	-77.3817	-141.954	37.1291	-46.7428	-163.839	37.1493	-85.0761	-148.688	22.0267	-63.2077	-153.016	43.2782	-37.3196	-168.634	75.4916	-51.6996	-177.812	71.1732	-17.5304	-141.424	84.5928	-30.8908	
